<?xml version="1.0" ?><svg id="Layer_1_1_" style="enable-background:new 0 0 64 64;" version="1.1" viewBox="0 0 64 64" xml:space="preserve" xmlns="http://www.w3.org/2000/svg" xmlns:xlink="http://www.w3.org/1999/xlink"><g><rect height="2" width="8" x="28" y="57" fill="#fff"/><path d="M58,11h-6V6c0-2.757-2.243-5-5-5H17c-2.757,0-5,2.243-5,5v25H6c-2.757,0-5,2.243-5,5v20.805L10.287,51H12v7   c0,2.757,2.243,5,5,5h30c2.757,0,5-2.243,5-5V31h1.713L63,36.805V16C63,13.243,60.757,11,58,11z M17,3h30c1.654,0,3,1.346,3,3v1H14   V6C14,4.346,15.346,3,17,3z M9.713,49L3,53.195V36c0-1.654,1.346-3,3-3h22c1.654,0,3,1.346,3,3v10c0,1.654-1.346,3-3,3H9.713z    M47,61H17c-1.654,0-3-1.346-3-3v-3h36v3C50,59.654,48.654,61,47,61z M50,53H14v-2h14c2.757,0,5-2.243,5-5V36c0-2.757-2.243-5-5-5   H14V9h36v2H36c-2.757,0-5,2.243-5,5v10c0,2.757,2.243,5,5,5h14V53z M61,33.195L54.287,29H52h-2H36c-1.654,0-3-1.346-3-3V16   c0-1.654,1.346-3,3-3h22c1.654,0,3,1.346,3,3V33.195z" fill="#fff"/><path d="M47,18c-1.654,0-3,1.346-3,3s1.346,3,3,3s3-1.346,3-3S48.654,18,47,18z M47,22c-0.551,0-1-0.449-1-1s0.449-1,1-1   s1,0.449,1,1S47.551,22,47,22z" fill="#fff"/><path d="M55,18c-1.654,0-3,1.346-3,3s1.346,3,3,3s3-1.346,3-3S56.654,18,55,18z M55,22c-0.551,0-1-0.449-1-1s0.449-1,1-1   s1,0.449,1,1S55.551,22,55,22z" fill="#fff"/><path d="M39,18c-1.654,0-3,1.346-3,3s1.346,3,3,3s3-1.346,3-3S40.654,18,39,18z M39,22c-0.551,0-1-0.449-1-1s0.449-1,1-1   s1,0.449,1,1S39.551,22,39,22z" fill="#fff"/><path d="M23,41.184V41c0-3.309-2.691-6-6-6s-6,2.691-6,6v0.184C9.839,41.598,9,42.698,9,44c0,1.654,1.346,3,3,3h3v-6h-2   c0-2.206,1.794-4,4-4s4,1.794,4,4h-2v6h3c1.654,0,3-1.346,3-3C25,42.698,24.161,41.598,23,41.184z M13,45h-1c-0.551,0-1-0.448-1-1   s0.449-1,1-1h1V45z M22,45h-1v-2h1c0.551,0,1,0.448,1,1S22.551,45,22,45z" fill="#fff"/><rect height="2" width="2" x="35" y="40"/><rect height="2" width="2" x="39" y="40" fill="#fff"/><rect height="2" width="2" x="43" y="40" fill="#fff"/><rect height="2" width="2" x="19" y="20" fill="#fff"/><rect height="2" width="2" x="23" y="20" fill="#fff"/><rect height="2" width="2" x="27" y="20" fill="#fff"/></g></svg>