<?xml version="1.0" ?><svg height="64" viewBox="0 0 64 64" width="64" xmlns="http://www.w3.org/2000/svg"><defs><style>.cls-1{fill:none;stroke:#fff;stroke-linejoin:round;stroke-width:2px;}</style></defs><title/><g data-name="24-Mobile Shopping" id="_24-Mobile_Shopping"><path class="cls-1" d="M35,63H61a2,2,0,0,0,2-2V3a2,2,0,0,0-2-2H3A2,2,0,0,0,1,3V13"/><line class="cls-1" x1="1" x2="63" y1="9" y2="9"/><line class="cls-1" x1="4" x2="6" y1="5" y2="5"/><line class="cls-1" x1="8" x2="10" y1="5" y2="5"/><line class="cls-1" x1="58" x2="60" y1="5" y2="5"/><path class="cls-1" d="M33,24V19a4,4,0,0,0-4-4H5a4,4,0,0,0-4,4V59a4,4,0,0,0,4,4H29a4,4,0,0,0,4-4V54"/><line class="cls-1" x1="1" x2="33" y1="21" y2="21"/><line class="cls-1" x1="1" x2="33" y1="57" y2="57"/><circle class="cls-1" cx="42" cy="39" r="14"/><path class="cls-1" d="M38,41v2a2,2,0,0,0,2,2h4a2,2,0,0,0,2-2V41a2,2,0,0,0-2-2H40a2,2,0,0,1-2-2V35a2,2,0,0,1,2-2h4a2,2,0,0,1,2,2v2"/><line class="cls-1" x1="42" x2="42" y1="33" y2="30"/><line class="cls-1" x1="42" x2="42" y1="48" y2="45"/><polyline class="cls-1" points="55 13 59 13 59 17"/><path class="cls-1" d="M29,52c-2.5,0-2.5-2-5-2s-2.5,2-5,2-2.5-2-5-2"/><path class="cls-1" d="M25,45c-2.5,0-2.5,2-5,2s-2.5-2-5-2"/><line class="cls-1" x1="10" x2="12" y1="50" y2="50"/><line class="cls-1" x1="11" x2="13" y1="45" y2="45"/><polyline class="cls-1" points="29 28 29 25 5 25 5 31 25 31"/><line class="cls-1" x1="4" x2="6" y1="36" y2="36"/><line class="cls-1" x1="8" x2="10" y1="36" y2="36"/><line class="cls-1" x1="12" x2="25" y1="36" y2="36"/><line class="cls-1" x1="4" x2="25" y1="40" y2="40"/></g></svg>