<?xml version="1.0" ?><svg id="Layer_1_1_" style="enable-background:new 0 0 64 64;" version="1.1" viewBox="0 0 64 64" xml:space="preserve" xmlns="http://www.w3.org/2000/svg" xmlns:xlink="http://www.w3.org/1999/xlink"><g><path d="M58,15h-3V6c0-2.757-2.243-5-5-5H14c-2.757,0-5,2.243-5,5v9H6c-2.757,0-5,2.243-5,5v32c0,2.757,2.243,5,5,5h13v4h-4v2h34   v-2h-4v-4h13c2.757,0,5-2.243,5-5V20C63,17.243,60.757,15,58,15z M11,6c0-1.654,1.346-3,3-3h36c1.654,0,3,1.346,3,3v26   c0,1.654-1.346,3-3,3H36v5.234L27.277,35H14c-1.654,0-3-1.346-3-3V6z M6,17h3v15c0,2.757,2.243,5,5,5h12.723L38,43.766V37h12   c2.757,0,5-2.243,5-5V17h3c1.654,0,3,1.346,3,3v27H3V20C3,18.346,4.346,17,6,17z M43,61H21v-4h22V61z M58,55H6   c-1.654,0-3-1.346-3-3v-3h58v3C61,53.654,59.654,55,58,55z" fill="#fff"/><rect height="2" width="2" x="25" y="51" fill="#fff"/><rect height="2" width="6" x="29" y="51" fill="#fff" /><rect height="2" width="2" x="37" y="51" fill="#fff"/><path d="M20,29h5V17h-2v-1c0-4.962,4.037-9,9-9s9,4.038,9,9v1h-2v12h2v1c0,0.551-0.448,1-1,1h-5.184c-0.414-1.161-1.514-2-2.816-2   c-1.654,0-3,1.346-3,3s1.346,3,3,3c1.302,0,2.402-0.839,2.816-2H40c1.654,0,3-1.346,3-3v-1h1c2.757,0,5-2.243,5-5v-2   c0-2.757-2.243-5-5-5h-1v-1c0-6.065-4.935-11-11-11S21,9.935,21,16v1h-1c-2.757,0-5,2.243-5,5v2C15,26.757,17.243,29,20,29z M32,33   c-0.552,0-1-0.449-1-1s0.448-1,1-1s1,0.449,1,1S32.552,33,32,33z M47,22v2c0,1.302-0.839,2.402-2,2.816V21h-2v6h-2v-8h3   C45.654,19,47,20.346,47,22z M17,22c0-1.654,1.346-3,3-3h3v8h-2v-6h-2v5.816c-1.161-0.414-2-1.514-2-2.816V22z" fill="#fff"/><rect height="2" width="2" x="19" y="43" fill="#fff"/><rect height="2" width="12" x="5" y="43" fill="#fff"/><rect height="2" width="16" x="5" y="39" fill="#fff"/><rect height="2" width="2" x="57" y="43" fill="#fff"/><rect height="2" width="12" x="43" y="43" fill="#fff"/><rect height="2" width="16" x="43" y="39" fill="#fff"/></g></svg>