<?xml version="1.0" ?><svg data-name="Layer 1" id="Layer_1" viewBox="0 0 64 64" xmlns="http://www.w3.org/2000/svg"><defs><style>.cls-1{fill:#fff;}</style></defs><title/><path class="cls-1" d="M62,56H61V13a3,3,0,0,0-3-3H47V3a3,3,0,0,0-3-3H20a3,3,0,0,0-3,3V9a1,1,0,0,0-1,1H6a3,3,0,0,0-3,3V56H2a2,2,0,0,0-2,2v1a5,5,0,0,0,5,5H59a5,5,0,0,0,5-5V58A2,2,0,0,0,62,56ZM58,12a1,1,0,0,1,1,1v2.5H47V12ZM19,3a1,1,0,0,1,1-1H44a1,1,0,0,1,1,1V4.5H42.5a3.83,3.83,0,0,0-3,1.56A2.89,2.89,0,0,1,37.25,7.3H26.75a2.89,2.89,0,0,1-2.26-1.24,3.83,3.83,0,0,0-3-1.56H19Zm0,8V5.5h2.5a2.89,2.89,0,0,1,2.26,1.24,3.83,3.83,0,0,0,3,1.56h10.5a3.83,3.83,0,0,0,3-1.56A2.89,2.89,0,0,1,42.5,5.5H45V51a1,1,0,0,1-1,1H20a1,1,0,0,1-1-1ZM5,16.5h9a.5.5,0,0,0,0-1H5V13a1,1,0,0,1,1-1H16a1,1,0,0,0,1,1v2a1,1,0,0,0-1,1v2a1,1,0,0,0,1,1v8.5H14.25L11.4,23.7a.48.48,0,0,0-.4-.2H8a.5.5,0,0,0,0,1h2.75l2.85,3.8a.48.48,0,0,0,.4.2h3v4H14.25L11.4,28.7a.48.48,0,0,0-.4-.2H8a.5.5,0,0,0,0,1h2.75l2.85,3.8a.48.48,0,0,0,.4.2h3v4H14a.48.48,0,0,0-.4.2l-2.85,3.8H8a.5.5,0,0,0,0,1h3a.48.48,0,0,0,.4-.2l2.85-3.8H17v5H14a.48.48,0,0,0-.4.2l-2.85,3.8H8a.5.5,0,0,0,0,1h3a.48.48,0,0,0,.4-.2l2.85-3.8H17V51a3,3,0,0,0,3,3H44a3,3,0,0,0,3-3V44.5h2.75l2.85,3.8a.48.48,0,0,0,.4.2h3a.5.5,0,0,0,0-1H53.25L50.4,43.7a.48.48,0,0,0-.4-.2H47v-5h2.75l2.85,3.8a.48.48,0,0,0,.4.2h3a.5.5,0,0,0,0-1H53.25L50.4,37.7a.48.48,0,0,0-.4-.2H47v-4h3a.48.48,0,0,0,.4-.2l2.85-3.8H56a.5.5,0,0,0,0-1H53a.48.48,0,0,0-.4.2l-2.85,3.8H47v-4h3a.48.48,0,0,0,.4-.2l2.85-3.8H56a.5.5,0,0,0,0-1H53a.48.48,0,0,0-.4.2l-2.85,3.8H47v-11H59V56H5ZM38.3,58l-.15.15c-.7.69-1.36,1.35-2.15,1.35H28c-.79,0-1.45-.66-2.15-1.35L25.7,58ZM62,59a3,3,0,0,1-3,3H5a3,3,0,0,1-3-3V58H24.22a11.77,11.77,0,0,1,.93.85A4.2,4.2,0,0,0,28,60.5h8a4.2,4.2,0,0,0,2.85-1.65,11.77,11.77,0,0,1,.93-.85H62Z" fill="#fff"/><circle class="cls-1" cx="32" cy="5" r="1" fill="#fff"/><circle class="cls-1" cx="36" cy="5" r="1" fill="#fff"/><circle class="cls-1" cx="28" cy="5" r="1" fill="#fff"/><path class="cls-1" d="M27,38.73a.56.56,0,0,0,.27-.08.5.5,0,0,0,.15-.69A5.49,5.49,0,0,1,35,30.37a.5.5,0,0,0,.69-.15.51.51,0,0,0-.15-.7A6.5,6.5,0,0,0,25.5,35a6.42,6.42,0,0,0,1,3.5A.5.5,0,0,0,27,38.73Z" fill="#fff"/><path class="cls-1" d="M32,40.5a5.24,5.24,0,0,1-1.71-.28.5.5,0,0,0-.63.32.49.49,0,0,0,.31.63,6.39,6.39,0,0,0,2,.33A6.49,6.49,0,0,0,38.17,33a.5.5,0,0,0-.63-.32.52.52,0,0,0-.32.64A5.28,5.28,0,0,1,37.5,35,5.51,5.51,0,0,1,32,40.5Z" fill="#fff"/><path class="cls-1" d="M32,37.5A2.5,2.5,0,1,0,29.5,35,2.5,2.5,0,0,0,32,37.5Zm0-4A1.5,1.5,0,1,1,30.5,35,1.5,1.5,0,0,1,32,33.5Z" fill="#fff"/></svg>