<?xml version="1.0" ?><svg style="enable-background:new 0 0 50 50;" version="1.1" viewBox="0 0 50 50" xml:space="preserve" xmlns="http://www.w3.org/2000/svg" xmlns:xlink="http://www.w3.org/1999/xlink"><g id="Layer_1"><path d="M23,1h-2C11.075,1,3,9.075,3,19v30h20v-6h18V32h7.741l-7.743-13.273C40.851,8.927,32.834,1,23,1z M39,30v11H21v6H5V19   c0-8.822,7.178-16,16-16h2c8.822,0,16,7.178,16,16v0.271L45.259,30H39z" fill="#fff"/><path d="M22,5C14.28,5,8,11.28,8,19s6.28,14,14,14s14-6.28,14-14S29.72,5,22,5z M31.727,12H28V8.623   C29.468,9.476,30.737,10.629,31.727,12z M26,30.3V20h1.184c0.414,1.161,1.514,2,2.816,2c1.654,0,3-1.346,3-3s-1.346-3-3-3   c-1.302,0-2.402,0.839-2.816,2H24v12.819C23.348,30.929,22.683,31,22,31v-9h-3.184c-0.414-1.161-1.514-2-2.816-2   c-1.654,0-3,1.346-3,3s1.346,3,3,3c1.302,0,2.402-0.839,2.816-2H20v6.819C14.334,29.863,10,24.934,10,19   c0-3.032,1.139-5.796,3-7.911V16h4.184c0.414,1.161,1.514,2,2.816,2c1.654,0,3-1.346,3-3s-1.346-3-3-3   c-1.302,0-2.402,0.839-2.816,2H15V9.273C16.973,7.849,19.386,7,22,7c1.404,0,2.747,0.255,4,0.7V14h6.895   C33.597,15.524,34,17.214,34,19C34,24.213,30.653,28.647,26,30.3z M29,19c0-0.552,0.448-1,1-1s1,0.448,1,1s-0.448,1-1,1   S29,19.552,29,19z M17,23c0,0.552-0.448,1-1,1s-1-0.448-1-1s0.448-1,1-1S17,22.448,17,23z M19,15c0-0.552,0.448-1,1-1s1,0.448,1,1   s-0.448,1-1,1S19,15.552,19,15z" fill="#fff"/></g><g/></svg>